<svg xmlns="http://www.w3.org/2000/svg" viewBox="0 0 300 400" fill="none" stroke="currentColor" stroke-width="1.1">
  <g stroke-opacity="0.6">
    <path d="M78 352C78 240 96 168 104 118 112 168 130 240 130 352"/>
    <path d="M122 352C122 200 142 108 150 52 158 108 178 200 178 352"/>
    <path d="M170 352C170 240 188 168 196 118 204 168 222 240 222 352"/>
  </g>
  <g stroke-opacity="0.3">
    <path d="M84 300h40M88 258h32M92 216h24"/>
    <path d="M130 290h40M134 240h32M138 188h24M142 140h16"/>
    <path d="M176 300h40M180 258h32M184 216h24"/>
  </g>
  <g stroke-opacity="0.6">
    <circle cx="104" cy="110" r="3"/>
    <circle cx="150" cy="44" r="3"/>
    <circle cx="196" cy="110" r="3"/>
  </g>
  <line x1="40" y1="352" x2="260" y2="352" stroke-opacity="0.22"/>
</svg>
