<svg xmlns="http://www.w3.org/2000/svg" viewBox="0 0 400 300" fill="none" stroke="currentColor" stroke-width="1.1">
  <g stroke-opacity="0.6">
    <path d="M80 260C80 170 130 120 200 112 270 120 320 170 320 260"/>
    <path d="M120 260C120 200 155 165 200 158 245 165 280 200 280 260"/>
    <path d="M160 260C160 225 178 205 200 200 222 205 240 225 240 260"/>
  </g>
  <g stroke-opacity="0.35">
    <line x1="200" y1="112" x2="200" y2="60"/>
    <line x1="200" y1="60" x2="196" y2="68"/>
    <line x1="200" y1="60" x2="204" y2="68"/>
    <line x1="120" y1="158" x2="120" y2="128"/>
    <line x1="280" y1="158" x2="280" y2="128"/>
  </g>
  <g stroke-opacity="0.3">
    <path d="M92 240h32M100 220h20M148 236h28M156 216h16"/>
    <path d="M276 240h32M280 220h20M224 236h28M228 216h16"/>
  </g>
  <line x1="50" y1="260" x2="350" y2="260" stroke-opacity="0.4"/>
</svg>
