<svg xmlns="http://www.w3.org/2000/svg" viewBox="0 0 400 300" fill="none" stroke="currentColor" stroke-width="1.1">
  <rect x="100" y="50" width="200" height="200" stroke-opacity="0.6"/>
  <g fill="currentColor" fill-opacity="0.55" stroke="none">
    <circle cx="140" cy="90" r="2.5"/><circle cx="200" cy="90" r="2.5"/><circle cx="260" cy="90" r="2.5"/>
    <circle cx="140" cy="150" r="2.5"/><circle cx="260" cy="150" r="2.5"/>
    <circle cx="140" cy="210" r="2.5"/><circle cx="200" cy="210" r="2.5"/><circle cx="260" cy="210" r="2.5"/>
  </g>
  <g stroke-opacity="0.5">
    <line x1="188" y1="110" x2="188" y2="190"/>
    <line x1="212" y1="110" x2="212" y2="190"/>
    <path d="M188 122h24M188 136h24M188 150h24M188 164h24M188 178h24" stroke-opacity="0.3"/>
  </g>
  <path d="M160 250c0-30 18-46 40-46s40 16 40 46" stroke-opacity="0.4"/>
  <g stroke-opacity="0.35">
    <line x1="100" y1="36" x2="300" y2="36"/>
    <line x1="100" y1="32" x2="100" y2="40"/>
    <line x1="300" y1="32" x2="300" y2="40"/>
  </g>
</svg>
