<svg xmlns="http://www.w3.org/2000/svg" viewBox="0 0 400 300" fill="none" stroke="currentColor" stroke-width="1.1">
  <g stroke-opacity="0.6">
    <rect x="180" y="60" width="26" height="140"/>
    <rect x="90" y="100" width="150" height="12"/>
    <rect x="60" y="150" width="220" height="14"/>
    <line x1="90" y1="112" x2="90" y2="150"/>
    <line x1="240" y1="112" x2="240" y2="150"/>
  </g>
  <g stroke-opacity="0.35">
    <path d="M40 200h140M60 216h100M76 232h68"/>
    <line x1="120" y1="164" x2="120" y2="238"/>
    <line x1="130" y1="164" x2="130" y2="248"/>
    <line x1="140" y1="164" x2="140" y2="242"/>
    <path d="M280 200h80M300 214h50"/>
  </g>
  <g stroke-opacity="0.5">
    <line x1="60" y1="150" x2="52" y2="150"/>
    <line x1="280" y1="150" x2="288" y2="150"/>
    <line x1="52" y1="150" x2="52" y2="164"/>
    <line x1="288" y1="150" x2="288" y2="164"/>
  </g>
  <line x1="30" y1="264" x2="370" y2="264" stroke-opacity="0.22"/>
</svg>
