<svg xmlns="http://www.w3.org/2000/svg" viewBox="0 0 400 300" fill="none" stroke="currentColor" stroke-width="1.1">
  <g stroke-opacity="0.6">
    <rect x="92" y="112" width="216" height="70"/>
    <line x1="92" y1="134" x2="308" y2="134"/>
    <line x1="92" y1="160" x2="308" y2="160"/>
    <path d="M160 112v-22h56a18 18 0 0 1 18 18v4"/>
  </g>
  <g stroke-opacity="0.3">
    <line x1="128" y1="134" x2="128" y2="160"/>
    <line x1="164" y1="134" x2="164" y2="160"/>
    <line x1="200" y1="134" x2="200" y2="160"/>
    <line x1="236" y1="134" x2="236" y2="160"/>
    <line x1="272" y1="134" x2="272" y2="160"/>
  </g>
  <g stroke-opacity="0.55">
    <line x1="112" y1="182" x2="112" y2="228"/>
    <line x1="156" y1="182" x2="156" y2="228"/>
    <line x1="200" y1="182" x2="200" y2="228"/>
    <line x1="244" y1="182" x2="244" y2="228"/>
    <line x1="288" y1="182" x2="288" y2="228"/>
  </g>
  <line x1="60" y1="228" x2="340" y2="228" stroke-opacity="0.22"/>
</svg>
