<svg xmlns="http://www.w3.org/2000/svg" viewBox="0 0 400 300" fill="none" stroke="currentColor" stroke-width="1.1">
  <g stroke-opacity="0.6">
    <path d="M48 84 184 130 184 196 48 244Z"/>
    <path d="M352 84 216 130 216 196 352 244Z"/>
  </g>
  <g stroke-opacity="0.3">
    <path d="M76 94 76 234M104 103 104 224M132 113 132 214M158 122 158 205"/>
    <path d="M324 94 324 234M296 103 296 224M268 113 268 214M242 122 242 205"/>
  </g>
  <g stroke-opacity="0.5">
    <line x1="197" y1="146" x2="197" y2="232"/>
    <line x1="203" y1="146" x2="203" y2="232"/>
  </g>
  <line x1="184" y1="146" x2="216" y2="146" stroke-opacity="0.35"/>
  <line x1="40" y1="256" x2="360" y2="256" stroke-opacity="0.22"/>
</svg>
