<svg xmlns="http://www.w3.org/2000/svg" viewBox="0 0 400 300" fill="none" stroke="currentColor" stroke-width="1.1">
  <rect x="50" y="90" width="300" height="120" stroke-opacity="0.35"/>
  <g stroke-opacity="0.65" stroke-width="1.6">
    <line x1="90" y1="120" x2="210" y2="120"/>
    <line x1="150" y1="150" x2="270" y2="150"/>
    <line x1="110" y1="180" x2="190" y2="180"/>
    <line x1="240" y1="120" x2="240" y2="180"/>
    <line x1="300" y1="140" x2="300" y2="200"/>
  </g>
  <g stroke-opacity="0.6">
    <path d="M126 132v8M122 136h8M186 132v8M182 136h8M126 162v8M122 166h8M186 162v8M182 166h8M246 132v8M242 136h8M286 132v8M282 136h8M246 162v8M242 166h8M286 162v8M282 166h8"/>
  </g>
  <g stroke-opacity="0.3">
    <rect x="66" y="150" width="52" height="44"/>
    <line x1="72" y1="162" x2="112" y2="162"/>
    <line x1="72" y1="174" x2="112" y2="174"/>
    <rect x="310" y="102" width="30" height="60"/>
  </g>
</svg>
