<svg xmlns="http://www.w3.org/2000/svg" viewBox="0 0 400 300" fill="none" stroke="currentColor" stroke-width="1.1">
  <g stroke-opacity="0.5">
    <rect x="60" y="80" width="280" height="160"/>
    <line x1="60" y1="130" x2="340" y2="130"/>
    <line x1="60" y1="180" x2="340" y2="180"/>
    <line x1="130" y1="80" x2="130" y2="240"/>
    <line x1="200" y1="80" x2="200" y2="240"/>
    <line x1="270" y1="80" x2="270" y2="240"/>
  </g>
  <g stroke-opacity="0.3">
    <rect x="80" y="98" width="30" height="20"/>
    <rect x="150" y="98" width="30" height="20"/>
    <rect x="220" y="98" width="30" height="20"/>
    <rect x="290" y="98" width="30" height="20"/>
    <rect x="80" y="148" width="30" height="20"/>
    <rect x="150" y="148" width="30" height="20"/>
    <rect x="220" y="148" width="30" height="20"/>
    <rect x="290" y="148" width="30" height="20"/>
    <rect x="80" y="198" width="30" height="30"/>
    <rect x="150" y="198" width="30" height="30"/>
    <rect x="220" y="198" width="30" height="30"/>
    <rect x="290" y="198" width="30" height="30"/>
  </g>
</svg>
